<?xml version="1.0" encoding="UTF-8" standalone="no"?>
<svg
   xmlns:dc="http://purl.org/dc/elements/1.1/"
   xmlns:cc="http://creativecommons.org/ns#"
   xmlns:rdf="http://www.w3.org/1999/02/22-rdf-syntax-ns#"
   xmlns:svg="http://www.w3.org/2000/svg"
   xmlns="http://www.w3.org/2000/svg"
   height="525"
   width="525"
   viewBox="0 0 524.99998 524.99998"
   version="1.1"
   id="svg72">
  <metadata
     id="metadata76">
    <rdf:RDF>
      <cc:Work
         rdf:about="">
        <dc:format>image/svg+xml</dc:format>
        <dc:type
           rdf:resource="http://purl.org/dc/dcmitype/StillImage" />
        <dc:title>SOUR-fixed-font</dc:title>
      </cc:Work>
    </rdf:RDF>
  </metadata>
  <defs
     id="defs4">
    <style
       id="style2">.a{fill:#f29c1f;}.b{fill:#f0c419;}.c{fill:#2c2f38;}.d,.e{fill:#fff;}.d{stroke:#2c2f38;}.f{fill:#f3d55b;}.g{fill:#c03a2b;}.h{isolation:isolate;}</style>
  </defs>
  <title
     id="title6">SOUR-fixed-font</title>
  <path
     style="fill:#f29c1f"
     class="a"
     d="m 421.65403,427.03237 c -144.421,144.418 -284.867,41.579 -322.648004,79.27 -37.6,37.7 -76.184,-0.883 -76.184,-0.883 a 50.366,50.366 0 0 1 -4.589,-5.562 c -9.0940004,-12 -25.3360004,-41.578 3.707,-70.617 35.132,-35.223 -51.641,-159.34 52.789,-292.9 q 1.986,-2.648 4.238,-5.3 A 350.274,350.274 0 0 1 125.66203,84.345375 c 135.5,-110.965 262.535,-21.453 298.2,-57.027 29.039,-29.0430004 58.613,-12.8 70.617,-3.707 a 50.366,50.366 0 0 1 5.562,4.589 c 0,0 38.578,38.579 0.883,76.183995 -37.691,37.781 65.148,178.227 -79.27,322.648 z"
     id="path8" />
  <path
     style="fill:#f0c419"
     class="b"
     d="m 489.18603,92.642375 c -37.785,37.694995 57.906,170.991995 -86.512,315.409995 -144.418,144.418 -277.715,48.727 -315.410004,86.512 a 49.185,49.185 0 0 1 -69.031,5.293 c -9.0940004,-12 -25.3360004,-41.578 3.707,-70.617 35.132,-35.223 -51.641,-159.34 52.789,-292.9 q 1.986,-2.648 4.238,-5.3 A 350.274,350.274 0 0 1 125.66203,84.345375 c 135.5,-110.965 262.535,-21.453 298.2,-57.027 29.039,-29.0430004 58.613,-12.8 70.617,-3.707 a 49.185,49.185 0 0 1 -5.293,69.031 z"
     id="path10" />
  <path
     style="fill:#2c2f38"
     class="c"
     d="m 314.39703,116.74037 a 26.483,26.483 0 1 1 -26.481,-26.480995 26.482,26.482 0 0 1 26.481,26.480995 z"
     id="path12" />
  <path
     style="fill:#ffffff;stroke:#2c2f38"
     class="d"
     d="m 296.74403,116.74037 a 8.828,8.828 0 1 1 -17.656,0 c 0,-4.876 3.953,-3.072 8.828,-3.072 4.875,0 8.828,-1.804 8.828,3.072 z"
     id="path14" />
  <path
     style="fill:#2c2f38"
     class="c"
     d="m 437.98303,116.74037 a 26.483,26.483 0 1 1 -26.481,-26.480995 26.482,26.482 0 0 1 26.481,26.480995 z"
     id="path16" />
  <path
     style="fill:#ffffff"
     class="e"
     d="m 420.33003,116.74037 a 8.828,8.828 0 0 1 -17.656,0 c 0,-4.876 3.953,-2.688 8.828,-2.688 4.875,0 8.828,-2.188 8.828,2.688 z"
     id="path18" />
  <path
     style="fill:#f29c1f"
     class="a"
     d="m 149.00203,434.83337 a 9.229,9.229 0 0 1 -6.531,1.766 9.074,9.074 0 0 1 -3.238,-1.192 7.431,7.431 0 0 1 -2.6,-2.242 7.3,7.3 0 0 1 -1.465,-3.105 10.063,10.063 0 0 1 -0.289,-3.434 8.834,8.834 0 0 1 4.879,-6.7 5.362,5.362 0 0 1 1.652,-0.6 6.834,6.834 0 0 1 1.766,-0.328 13.694,13.694 0 0 1 1.7,0 10.3,10.3 0 0 1 3.239,1.2 8.942,8.942 0 0 1 2.6,2.242 9.347,9.347 0 0 1 1.766,6.543 13.921,13.921 0 0 1 -0.418,1.64 6.266,6.266 0 0 1 -0.785,1.6 5.465,5.465 0 0 1 -1.016,1.441 10.463,10.463 0 0 1 -1.26,1.169 z"
     id="path20" />
  <path
     style="fill:#f29c1f"
     class="a"
     d="m 170.37703,462.93137 a 9.229,9.229 0 0 1 -6.535,1.766 9,9 0 0 1 -3.238,-1.192 8.343,8.343 0 0 1 -4.071,-5.348 10.364,10.364 0 0 1 -0.281,-3.433 8.818,8.818 0 0 1 4.871,-6.7 5.278,5.278 0 0 1 1.66,-0.6 6.792,6.792 0 0 1 1.766,-0.328 13.694,13.694 0 0 1 1.695,0 10.232,10.232 0 0 1 3.239,1.2 8.839,8.839 0 0 1 2.6,2.242 9.333,9.333 0 0 1 1.766,6.539 13.917,13.917 0 0 1 -0.426,1.641 6.761,6.761 0 0 1 -0.777,1.6 5.54,5.54 0 0 1 -1.012,1.437 11.2,11.2 0 0 1 -1.257,1.176 z"
     id="path22" />
  <path
     style="fill:#f29c1f"
     class="a"
     d="m 219.85403,469.66937 a 8.448,8.448 0 0 1 -9.774,0.555 8.276,8.276 0 0 1 -4.058,-5.3 10.158,10.158 0 0 1 -0.293,-3.434 8.825,8.825 0 0 1 4.883,-6.707 5.164,5.164 0 0 1 1.652,-0.6 7.089,7.089 0 0 1 1.765,-0.328 13.554,13.554 0 0 1 1.7,0.047 10.142,10.142 0 0 1 3.238,1.191 8.9,8.9 0 0 1 2.594,2.25 9.282,9.282 0 0 1 1.765,6.531 13.2,13.2 0 0 1 -0.414,1.645 6.444,6.444 0 0 1 -0.785,1.6 5.446,5.446 0 0 1 -1.015,1.438 10.039,10.039 0 0 1 -1.258,1.112 z"
     id="path24" />
  <path
     style="fill:#f29c1f"
     class="a"
     d="m 198.49003,441.59537 a 8.466,8.466 0 0 1 -9.781,0.559 8.3,8.3 0 0 1 -4.058,-5.3 10.236,10.236 0 0 1 -0.293,-3.446 8.84,8.84 0 0 1 4.882,-6.7 5.377,5.377 0 0 1 1.661,-0.6 6.826,6.826 0 0 1 1.765,-0.328 14.668,14.668 0 0 1 1.7,0.043 10.262,10.262 0 0 1 3.231,1.192 8.933,8.933 0 0 1 2.594,2.242 9.274,9.274 0 0 1 1.768,6.545 11.766,11.766 0 0 1 -0.414,1.641 6.709,6.709 0 0 1 -0.777,1.6 5.679,5.679 0 0 1 -1.024,1.442 10.49,10.49 0 0 1 -1.254,1.11 z"
     id="path26" />
  <path
     style="fill:#f29c1f"
     class="a"
     d="m 247.96303,448.28637 a 9.2,9.2 0 0 1 -6.539,1.766 9.091,9.091 0 0 1 -3.238,-1.191 7.444,7.444 0 0 1 -2.6,-2.243 7.336,7.336 0 0 1 -1.465,-3.1 10.2,10.2 0 0 1 -0.289,-3.442 8.834,8.834 0 0 1 4.879,-6.7 5.335,5.335 0 0 1 1.652,-0.6 6.793,6.793 0 0 1 1.766,-0.329 14.737,14.737 0 0 1 1.695,0.043 10.122,10.122 0 0 1 3.239,1.2 8.839,8.839 0 0 1 2.6,2.242 9.333,9.333 0 0 1 1.766,6.539 15.9,15.9 0 0 1 -0.418,1.641 6.551,6.551 0 0 1 -0.785,1.6 5.47,5.47 0 0 1 -1.016,1.442 9.829,9.829 0 0 1 -1.247,1.132 z"
     id="path28" />
  <path
     style="fill:#f29c1f"
     class="a"
     d="m 146.84203,136.06437 a 9.28,9.28 0 0 1 1.34,-6.637 9.147,9.147 0 0 1 2.515,-2.367 8.3,8.3 0 0 1 6.594,-1.258 10.131,10.131 0 0 1 3.207,1.273 8.827,8.827 0 0 1 3.821,7.36 5.178,5.178 0 0 1 -0.2,1.765 6.515,6.515 0 0 1 -0.484,1.707 12.949,12.949 0 0 1 -0.793,1.5 10.086,10.086 0 0 1 -2.508,2.364 8.7,8.7 0 0 1 -3.168,1.324 9.284,9.284 0 0 1 -6.64,-1.34 13.944,13.944 0 0 1 -1.282,-1.113 6.425,6.425 0 0 1 -1.082,-1.4 5.55,5.55 0 0 1 -0.832,-1.554 10.683,10.683 0 0 1 -0.488,-1.624 z"
     id="path30" />
  <path
     style="fill:#f29c1f"
     class="a"
     d="m 112.15803,142.65737 a 8.826,8.826 0 0 1 10.45,-10.257 10.2,10.2 0 0 1 3.207,1.281 8.839,8.839 0 0 1 3.832,7.355 5.521,5.521 0 0 1 -0.2,1.766 7.059,7.059 0 0 1 -0.489,1.711 14.311,14.311 0 0 1 -0.793,1.5 10.253,10.253 0 0 1 -2.515,2.367 8.858,8.858 0 0 1 -3.168,1.313 9.275,9.275 0 0 1 -6.633,-1.34 14.383,14.383 0 0 1 -1.289,-1.1 6.853,6.853 0 0 1 -1.074,-1.414 5.191,5.191 0 0 1 -0.883,-1.555 10.948,10.948 0 0 1 -0.445,-1.627 z"
     id="path32" />
  <path
     style="fill:#f29c1f"
     class="a"
     d="m 84.069026,183.94737 a 9.293,9.293 0 0 1 1.355,-6.645 8.873,8.873 0 0 1 2.516,-2.356 8.3,8.3 0 0 1 6.586,-1.261 10.136,10.136 0 0 1 3.2,1.277 8.835,8.835 0 0 1 3.832004,7.356 5.518,5.518 0 0 1 -0.2,1.765 6.836,6.836 0 0 1 -0.493,1.719 13,13 0 0 1 -0.793,1.5 10.025,10.025 0 0 1 -2.515004,2.363 8.959,8.959 0 0 1 -3.16,1.325 9.308,9.308 0 0 1 -6.637,-1.352 13.264,13.264 0 0 1 -1.289,-1.1 6.767,6.767 0 0 1 -1.078,-1.414 5.409,5.409 0 0 1 -0.883,-1.55 11.158,11.158 0 0 1 -0.441,-1.627 z"
     id="path34" />
  <path
     style="fill:#f29c1f"
     class="a"
     d="m 118.75203,177.35337 a 8.464,8.464 0 0 1 3.856,-9 8.283,8.283 0 0 1 6.6,-1.254 10.213,10.213 0 0 1 3.2,1.277 8.766,8.766 0 0 1 3.821,7.356 5.2,5.2 0 0 1 -0.2,1.765 6.5,6.5 0 0 1 -0.485,1.7 14.122,14.122 0 0 1 -0.793,1.507 10.362,10.362 0 0 1 -2.508,2.36 8.767,8.767 0 0 1 -3.168,1.324 9.307,9.307 0 0 1 -6.64,-1.344 15.087,15.087 0 0 1 -1.278,-1.1 6.372,6.372 0 0 1 -1.078,-1.414 5.379,5.379 0 0 1 -0.882,-1.555 11.031,11.031 0 0 1 -0.445,-1.622 z"
     id="path36" />
  <path
     style="fill:#f29c1f"
     class="a"
     d="m 90.670026,218.63837 a 8.461,8.461 0 0 1 3.859,-9 8.274,8.274 0 0 1 6.594004,-1.254 10,10 0 0 1 3.2,1.281 8.762,8.762 0 0 1 3.825,7.352 5.284,5.284 0 0 1 -0.2,1.766 6.266,6.266 0 0 1 -0.484,1.7 13.5,13.5 0 0 1 -0.8,1.5 10.031,10.031 0 0 1 -2.508,2.363 8.68,8.68 0 0 1 -3.168,1.324 9.253,9.253 0 0 1 -6.628004,-1.34 12.923,12.923 0 0 1 -1.29,-1.113 6.187,6.187 0 0 1 -1.078,-1.4 5.413,5.413 0 0 1 -0.836,-1.555 10.63,10.63 0 0 1 -0.486,-1.624 z"
     id="path38" />
  <path
     style="fill:#f3d55b"
     class="f"
     d="m 420.33003,355.08737 a 8.829,8.829 0 0 1 -6.886,-14.347 162.965,162.965 0 0 0 33.367,-91.586 8.828,8.828 0 1 1 17.656,0 179.208,179.208 0 0 1 -37.243,102.621 8.843,8.843 0 0 1 -6.894,3.312 z"
     id="path40" />
  <path
     style="fill:#f3d55b"
     class="f"
     d="m 402.67403,381.56837 a 11.064,11.064 0 0 1 -1.676,-0.176 5.308,5.308 0 0 1 -1.679,-0.531 6.585,6.585 0 0 1 -1.59,-0.793 l -1.325,-1.059 a 10.172,10.172 0 0 1 -1.851,-2.914 8.32,8.32 0 0 1 0,-6.707 8.22,8.22 0 0 1 1.851,-2.914 14.427,14.427 0 0 1 1.325,-1.059 6.747,6.747 0 0 1 1.59,-0.8 5.4,5.4 0 0 1 1.679,-0.527 8.518,8.518 0 0 1 9.8,5.3 8.32,8.32 0 0 1 0,6.707 10.185,10.185 0 0 1 -1.855,2.914 9.284,9.284 0 0 1 -6.269,2.559 z"
     id="path42" />
  <path
     style="fill:#2c2f38"
     class="c"
     d="m 402.67403,178.53237 a 8.83,8.83 0 0 1 8.828,8.829 v 17.656 a 61.793,61.793 0 1 1 -123.586,0 v -17.656 a 8.827,8.827 0 0 1 8.828,-8.829 z"
     id="path44" />
  <path
     style="fill:#c03a2b"
     class="g"
     d="m 406.29103,229.82237 a 61.791,61.791 0 0 1 -113.168,0 96.54,96.54 0 0 1 56.586,-15.977 96.526,96.526 0 0 1 56.582,15.977 z"
     id="path46" />
  <g
     transform="translate(5.4240256,10.802375)"
     style="isolation:isolate"
     class="h"
     id="g58">
    <g
       style="isolation:isolate"
       class="h"
       id="g56">
      <path
         style="fill:#ffffff"
         class="e"
         d="m 62.188,448.4 a 40.431,40.431 0 0 0 12.2,-1.55 20.46,20.46 0 0 0 7.722,-4.232 14.109,14.109 0 0 0 4.029,-6.346 27.967,27.967 0 0 0 1.12,-8.179 20.4,20.4 0 0 0 -7.159,-15.936 q -7.167,-6.345 -24.623,-13.679 a 164.887,164.887 0 0 1 -15.221,-7.757 56.347,56.347 0 0 1 -13.654,-11 52.841,52.841 0 0 1 -9.849,-16.078 q -3.808,-9.445 -3.8,-22.988 a 69.74,69.74 0 0 1 4.029,-24.4 52.262,52.262 0 0 1 11.416,-18.476 49.611,49.611 0 0 1 17.907,-11.7 65.121,65.121 0 0 1 23.727,-4.09 q 15.665,0 27.084,4.231 a 86.291,86.291 0 0 1 18.8,9.307 l -10.073,34.694 A 85.882,85.882 0 0 0 91.4,322.744 q -7.947,-3.239 -19.138,-3.243 -12.538,0 -18.019,4.372 -5.481,4.372 -5.484,13.4 a 18.533,18.533 0 0 0 2.014,9.026 22.3,22.3 0 0 0 5.708,6.628 47.008,47.008 0 0 0 8.506,5.359 q 4.812,2.4 10.633,4.937 a 211.31,211.31 0 0 1 21.041,11.14 57.947,57.947 0 0 1 14.884,12.837 49.158,49.158 0 0 1 8.842,17.2 q 2.907,9.878 2.91,23.976 0,27.362 -15.221,42.449 -15.221,15.087 -45.888,15.091 a 101.537,101.537 0 0 1 -18.578,-1.552 99.029,99.029 0 0 1 -14.662,-3.807 73.051,73.051 0 0 1 -10.968,-4.8 77.252,77.252 0 0 1 -7.722,-4.8 l 9.848,-34.976 a 78.247,78.247 0 0 0 17.124,8.6 q 10.184,3.819 24.958,3.819 z"
         id="path48" />
      <path
         style="fill:#ffffff"
         class="e"
         d="m 258.045,384.092 q 0,25.109 -5.931,44.142 -5.931,19.033 -16.229,31.873 a 66.63,66.63 0 0 1 -24.51,19.322 72.756,72.756 0 0 1 -30.554,6.487 70.936,70.936 0 0 1 -30,-6.487 68.827,68.827 0 0 1 -24.621,-19.322 q -10.524,-12.831 -16.564,-31.873 -6.04,-19.042 -6.036,-44.142 0,-25.1 6.267,-44.142 6.267,-19.042 16.9,-32.013 a 68.658,68.658 0 0 1 54.058,-25.95 70.915,70.915 0 0 1 29.994,6.488 68.347,68.347 0 0 1 24.623,19.462 q 10.514,12.977 16.558,32.013 6.044,19.036 6.045,44.142 z m -118.411,0 a 110.413,110.413 0 0 0 2.8,25.95 65.921,65.921 0 0 0 8.058,19.885 38.369,38.369 0 0 0 12.871,12.834 35.82,35.82 0 0 0 34.807,0 38.043,38.043 0 0 0 12.983,-12.834 66.127,66.127 0 0 0 8.058,-19.885 110.625,110.625 0 0 0 2.8,-25.95 112.455,112.455 0 0 0 -2.8,-26.09 66.12,66.12 0 0 0 -8.058,-20.026 38.112,38.112 0 0 0 -12.983,-12.833 33.771,33.771 0 0 0 -17.347,-4.514 32.785,32.785 0 0 0 -17.46,4.654 39.787,39.787 0 0 0 -12.871,12.975 65.927,65.927 0 0 0 -8.058,20.026 110.9,110.9 0 0 0 -2.8,25.808 z"
         id="path50" />
      <path
         style="fill:#ffffff"
         class="e"
         d="m 307.959,485.916 q -16.342,0 -28.2,-5.782 a 53.189,53.189 0 0 1 -19.586,-16.078 69.415,69.415 0 0 1 -11.416,-24.539 125.217,125.217 0 0 1 -3.693,-31.45 V 286.5 h 34.916 v 117.9 a 82.448,82.448 0 0 0 2.126,20.167 40.811,40.811 0 0 0 5.82,13.539 21.1,21.1 0 0 0 8.954,7.475 28.866,28.866 0 0 0 11.528,2.257 25.322,25.322 0 0 0 20.7,-9.872 q 7.943,-9.87 7.946,-33.566 V 286.5 h 34.92 v 121.567 a 123.345,123.345 0 0 1 -3.807,31.591 69.686,69.686 0 0 1 -11.639,24.68 52.473,52.473 0 0 1 -19.922,15.936 q -12.082,5.64 -28.647,5.642 z"
         id="path52" />
      <path
         style="fill:#ffffff"
         class="e"
         d="m 411.146,284.244 q 34.92,0 53.5,15.654 18.58,15.654 18.578,48.655 0,20.592 -7.5,33.424 a 52.261,52.261 0 0 1 -21.6,20.168 q 4.7,7.337 9.849,16.782 5.149,9.445 10.184,19.744 5.037,10.3 9.738,21.436 4.701,11.136 8.729,21.86 h -39.035 q -4.272,-9.586 -8.653,-19.462 -4.381,-9.876 -8.985,-19.18 -4.607,-9.309 -9.1,-17.629 -4.493,-8.32 -8.99,-15.091 h -17.235 v 71.362 H 365.707 V 289.32 a 160.218,160.218 0 0 1 23.615,-3.949 q 12.198,-1.122 21.824,-1.127 z m 2.015,37.514 q -3.808,0 -6.827,0.281 -3.019,0.281 -5.708,0.565 v 53.027 h 9.849 q 19.693,0 28.2,-6.2 8.507,-6.2 8.506,-21.155 0,-14.385 -8.619,-20.449 -8.619,-6.064 -25.401,-6.069 z"
         id="path54" />
    </g>
  </g>
  <g
     transform="translate(5.4240256,10.802375)"
     style="isolation:isolate"
     class="h"
     id="g70">
    <g
       style="isolation:isolate"
       class="h"
       id="g68">
      <path
         d="m 55.68,459.249 a 40.426,40.426 0 0 0 12.2,-1.551 20.457,20.457 0 0 0 7.723,-4.231 14.121,14.121 0 0 0 4.028,-6.346 27.974,27.974 0 0 0 1.12,-8.18 20.4,20.4 0 0 0 -7.163,-15.936 q -7.165,-6.346 -24.623,-13.68 a 164.872,164.872 0 0 1 -15.22,-7.757 56.333,56.333 0 0 1 -13.655,-11 52.829,52.829 0 0 1 -9.85,-16.078 Q 6.432,365.045 6.435,351.5 a 69.75,69.75 0 0 1 4.029,-24.4 52.272,52.272 0 0 1 11.416,-18.47 49.6,49.6 0 0 1 17.907,-11.7 65.1,65.1 0 0 1 23.727,-4.09 q 15.666,0 27.085,4.23 a 86.3,86.3 0 0 1 18.8,9.308 l -10.07,34.688 a 85.993,85.993 0 0 0 -14.438,-7.474 q -7.949,-3.238 -19.139,-3.243 -12.537,0 -18.019,4.372 -5.482,4.372 -5.483,13.4 a 18.525,18.525 0 0 0 2.014,9.027 22.255,22.255 0 0 0 5.708,6.627 46.887,46.887 0 0 0 8.506,5.36 q 4.81,2.4 10.632,4.936 a 211.4,211.4 0 0 1 21.041,11.141 57.916,57.916 0 0 1 14.886,12.834 49.173,49.173 0 0 1 8.841,17.2 q 2.907,9.878 2.91,23.976 0,27.361 -15.221,42.449 -15.221,15.088 -45.887,15.093 A 101.629,101.629 0 0 1 37.1,495.212 99.056,99.056 0 0 1 22.439,491.4 72.994,72.994 0 0 1 11.471,486.6 77.068,77.068 0 0 1 3.749,481.805 L 13.6,446.839 a 78.225,78.225 0 0 0 17.124,8.6 q 10.176,3.811 24.956,3.81 z"
         id="path60" />
      <path
         d="m 259.371,394.939 q 0,25.11 -5.932,44.143 -5.932,19.033 -16.228,31.873 a 66.628,66.628 0 0 1 -24.511,19.321 72.734,72.734 0 0 1 -30.554,6.488 70.921,70.921 0 0 1 -29.994,-6.488 68.816,68.816 0 0 1 -24.623,-19.321 q -10.524,-12.833 -16.564,-31.873 -6.04,-19.04 -6.044,-44.143 0,-25.1 6.268,-44.141 6.268,-19.041 16.9,-32.014 a 68.649,68.649 0 0 1 54.057,-25.949 70.934,70.934 0 0 1 30,6.487 68.346,68.346 0 0 1 24.622,19.462 q 10.52,12.978 16.564,32.014 6.044,19.036 6.039,44.141 z m -118.412,0 a 110.42,110.42 0 0 0 2.8,25.951 65.914,65.914 0 0 0 8.058,19.884 38.351,38.351 0 0 0 12.871,12.834 35.813,35.813 0 0 0 34.807,0 38.034,38.034 0 0 0 12.983,-12.834 66.121,66.121 0 0 0 8.058,-19.884 110.634,110.634 0 0 0 2.8,-25.951 112.446,112.446 0 0 0 -2.8,-26.089 66.137,66.137 0 0 0 -8.058,-20.027 38.121,38.121 0 0 0 -12.983,-12.833 33.772,33.772 0 0 0 -17.348,-4.513 32.772,32.772 0 0 0 -17.459,4.654 39.774,39.774 0 0 0 -12.871,12.974 65.933,65.933 0 0 0 -8.058,20.027 110.9,110.9 0 0 0 -2.8,25.807 z"
         id="path62" />
      <path
         d="m 317.119,496.764 q -16.341,0 -28.2,-5.783 A 53.177,53.177 0 0 1 269.33,474.9 69.424,69.424 0 0 1 257.914,450.361 125.2,125.2 0 0 1 254.221,418.912 V 297.348 h 34.92 v 117.9 a 82.4,82.4 0 0 0 2.126,20.167 40.811,40.811 0 0 0 5.819,13.539 21.1,21.1 0 0 0 8.954,7.475 28.866,28.866 0 0 0 11.528,2.257 25.322,25.322 0 0 0 20.705,-9.873 q 7.942,-9.87 7.946,-33.565 v -117.9 h 34.92 v 121.567 a 123.345,123.345 0 0 1 -3.807,31.591 69.694,69.694 0 0 1 -11.639,24.68 52.482,52.482 0 0 1 -19.922,15.936 q -12.087,5.64 -28.652,5.642 z"
         id="path64" />
      <path
         d="m 428.142,295.092 q 34.918,0 53.5,15.654 18.582,15.654 18.576,48.654 0,20.594 -7.5,33.424 a 52.242,52.242 0 0 1 -21.6,20.168 q 4.7,7.338 9.849,16.782 5.149,9.444 10.184,19.745 5.037,10.3 9.738,21.436 4.701,11.136 8.729,21.859 h -39.034 q -4.272,-9.585 -8.653,-19.461 -4.381,-9.876 -8.985,-19.18 -4.607,-9.309 -9.1,-17.629 -4.493,-8.32 -8.99,-15.091 h -17.235 v 71.361 H 382.7 V 300.168 a 160.218,160.218 0 0 1 23.615,-3.949 q 12.2,-1.119 21.827,-1.127 z m 2.014,37.513 q -3.808,0 -6.827,0.282 -3.019,0.282 -5.708,0.564 v 53.028 h 9.849 q 19.695,0 28.2,-6.206 8.505,-6.206 8.506,-21.154 0,-14.387 -8.618,-20.449 -8.618,-6.062 -25.402,-6.065 z"
         id="path66" />
    </g>
  </g>
</svg>
